<svg xmlns="http://www.w3.org/2000/svg" width="28.641" height="25.537" viewBox="0 0 28.641 25.537">
  <path id="basket-shopping-simple-light" d="M15.853,1.147A.788.788,0,1,1,17.216.355L22.5,9.408h5.058a.787.787,0,0,1,0,1.575H26.373L23.426,22.767a3.148,3.148,0,0,1-3.056,2.386H7.971a3.148,3.148,0,0,1-3.056-2.386L1.968,10.983H.787a.787.787,0,0,1,0-1.575H5.845L11.13.35a.788.788,0,0,1,1.363.792L7.671,9.408h13L15.848,1.147Zm8.9,9.836H3.592L6.441,22.388a1.578,1.578,0,0,0,1.525,1.191h12.4A1.569,1.569,0,0,0,21.9,22.388ZM7.085,14.525a1.181,1.181,0,1,1,1.181,1.181A1.181,1.181,0,0,1,7.085,14.525Zm12.99-1.181a1.181,1.181,0,1,1-1.181,1.181A1.181,1.181,0,0,1,20.075,13.344Z" transform="translate(0.15 0.234)" stroke="#000" stroke-width="0.3"/>
</svg>
