<svg xmlns="http://www.w3.org/2000/svg" width="17.893" height="21.471" viewBox="0 0 17.893 21.471">
  <g id="trash" transform="translate(-2)">
    <path id="Path_6559" data-name="Path 6559" d="M19,3.579H16.225A4.481,4.481,0,0,0,11.841,0H10.052A4.481,4.481,0,0,0,5.668,3.579H2.895a.895.895,0,1,0,0,1.789h.895V17a4.479,4.479,0,0,0,4.473,4.473H13.63A4.479,4.479,0,0,0,18.1,17V5.368H19a.895.895,0,1,0,0-1.789ZM10.052,1.789h1.789a2.689,2.689,0,0,1,2.531,1.789H7.521a2.689,2.689,0,0,1,2.531-1.789ZM16.314,17a2.684,2.684,0,0,1-2.684,2.684H8.262A2.684,2.684,0,0,1,5.579,17V5.368H16.314Z" fill="#f53232"/>
    <path id="Path_6560" data-name="Path 6560" d="M9.895,17.157a.9.9,0,0,0,.895-.895V10.895a.895.895,0,1,0-1.789,0v5.368A.9.9,0,0,0,9.895,17.157Z" transform="translate(-0.738 -1.054)" fill="#f53232"/>
    <path id="Path_6561" data-name="Path 6561" d="M13.895,17.157a.9.9,0,0,0,.895-.895V10.895a.895.895,0,1,0-1.789,0v5.368A.9.9,0,0,0,13.895,17.157Z" transform="translate(-1.159 -1.054)" fill="#f53232"/>
  </g>
</svg>