<svg xmlns="http://www.w3.org/2000/svg" width="23.789" height="21.218" viewBox="0 0 23.789 21.218">
  <path id="basket-shopping-simple-light" d="M13.139.943a.653.653,0,1,1,1.13-.657l4.376,7.5h4.192a.652.652,0,0,1,0,1.3h-.979l-2.443,9.767a2.609,2.609,0,0,1-2.532,1.978H6.606a2.609,2.609,0,0,1-2.532-1.978L1.631,9.1H.652a.652.652,0,0,1,0-1.3H4.845L9.224.283a.653.653,0,0,1,1.13.657l-4,6.851H17.132l-4-6.847ZM20.512,9.1H2.977l2.361,9.453a1.308,1.308,0,0,0,1.264.987H16.883a1.3,1.3,0,0,0,1.264-.987ZM5.872,12.032a.979.979,0,1,1,.979.979A.979.979,0,0,1,5.872,12.032Zm10.766-.979a.979.979,0,1,1-.979.979A.979.979,0,0,1,16.638,11.053Z" transform="translate(0.15 0.228)" fill="#fff" stroke="#fff" stroke-width="0.3"/>
</svg>